<?xml version="1.0" encoding="UTF-8"?>
<svg width="141px" height="42px" viewBox="0 0 141 42" version="1.1" xmlns="http://www.w3.org/2000/svg" xmlns:xlink="http://www.w3.org/1999/xlink">
    <!-- Generator: Sketch 46.2 (44496) - http://www.bohemiancoding.com/sketch -->
    <title>Appstore</title>
    <desc>Created with Sketch.</desc>
    <defs></defs>
    <g id="Page-1" stroke="none" stroke-width="1" fill="none" fill-rule="evenodd">
        <g id="ml-home-D" transform="translate(-834.000000, -5079.000000)">
            <g id="download" transform="translate(0.000000, 4113.000000)">
                <g id="buttons" transform="translate(430.000000, 958.000000)">
                    <g id="Appstore" transform="translate(380.000000, 0.000000)">
                        <text id="COMING-SOON" font-family="OpenSans-Bold, Open Sans" font-size="13" font-weight="bold" fill="#FF9500">
                            <tspan x="69" y="49">COMING SOON</tspan>
                        </text>
                        <text id="iOS-App" font-family="OpenSans, Open Sans" font-size="24" font-weight="normal" letter-spacing="-0.5" fill="#323C46">
                            <tspan x="69" y="29">iOS Ap</tspan>
                            <tspan x="140.0625" y="29">p</tspan>
                        </text>
                        <g id="logo_apple" opacity="0.600000024" transform="translate(23.906336, 8.513689)" fill="#323C46">
                            <path d="M26.6309596,21.378002 C26.586633,16.2994852 30.6646745,13.8287702 30.8511517,13.7137433 C28.5415862,10.2424517 24.9618361,9.7681627 23.7038795,9.73034564 C20.6973174,9.40417344 17.7809369,11.5849576 16.2493786,11.5849576 C14.6872502,11.5849576 12.3287727,9.76185986 9.78687497,9.81543404 C6.51588213,9.8674325 3.45582248,11.8197385 1.77752803,14.8514067 C-1.68605597,21.0329213 0.897111267,30.1168957 4.21548764,35.1134756 C5.87544008,37.5621306 7.81510826,40.292838 10.353949,40.1967196 C12.8377636,40.0927226 13.7655639,38.5642829 16.762955,38.5642829 C19.7328331,38.5642829 20.6040788,40.1967196 23.1933601,40.1336911 C25.8590664,40.0927226 27.5373608,37.6771575 29.1392302,35.2064426 C31.0574994,32.4048282 31.8278641,29.6394553 31.8584341,29.4976413 C31.797294,29.477157 26.6829286,27.464974 26.6309596,21.378002" id="Fill-2"></path>
                            <path d="M21.7397553,6.4434123 C23.0756655,4.72116008 23.9897093,2.37807769 23.735978,0.000329651135 C21.8024239,0.0885694722 19.3843348,1.37907686 17.9918701,3.06351201 C16.759898,4.54783186 15.6593771,6.98072978 15.9436783,9.26866229 C18.1156787,9.43568766 20.3457621,8.13887743 21.7397553,6.4434123" id="Fill-3"></path>
                        </g>
                    </g>
                </g>
            </g>
        </g>
    </g>
</svg>