<?xml version="1.0" encoding="UTF-8"?>
<svg width="81px" height="81px" viewBox="0 0 81 81" version="1.1" xmlns="http://www.w3.org/2000/svg" xmlns:xlink="http://www.w3.org/1999/xlink">
    <!-- Generator: Sketch 46.2 (44496) - http://www.bohemiancoding.com/sketch -->
    <title>Group 6@3x</title>
    <desc>Created with Sketch.</desc>
    <defs></defs>
    <g id="Page-1" stroke="none" stroke-width="1" fill="none" fill-rule="evenodd">
        <g id="ml-home-D" transform="translate(-800.000000, -2125.000000)">
            <g id="features" transform="translate(0.000000, 1644.000000)">
                <g id="feature" transform="translate(800.000000, 473.000000)">
                    <g id="Group-6" transform="translate(0.000000, 8.000000)">
                        <g id="icon" fill="#59BAFF">
                            <rect id="Rectangle-9" x="0" y="0" width="81" height="81" rx="15"></rect>
                        </g>
                        <g id="icon" transform="translate(15.000000, 15.000000)" stroke="#FFFFFF" stroke-width="3">
                            <ellipse id="Oval-3" cx="23.4662848" cy="25" rx="9.7135296" ry="12.0262747"></ellipse>
                            <path d="M49.5394432,25 C49.5394432,11.4472398 38.5527602,0.460556806 25,0.460556806 C11.4472398,0.460556806 0.460556806,11.4472398 0.460556806,25 C0.460556806,38.5527602 11.4472398,49.5394432 25,49.5394432 L25,49.5394432 C28.652893,49.5394432 32.1193678,48.7412923 35.2345435,47.3098718" id="Oval-2"></path>
                            <path d="M49.5394432,25 C49.5394432,34.2022912 44.2596895,37.2697216 40.1910839,37.2697216 C36.0468359,37.2697216 33.1798144,34.0652724 33.1798144,30.112384 L33.1798144,12.7302784" id="Rectangle"></path>
                            <g id="Group-2" transform="translate(42.000000, 42.000000)">
                                <polyline id="Line" points="0 11.9166667 6.5 0 13 11.9166667"></polyline>
                                <path d="M2.16666667,7.58333333 L10.8333333,7.58333333" id="Line"></path>
                            </g>
                        </g>
                    </g>
                </g>
            </g>
        </g>
    </g>
</svg>