<?xml version="1.0" encoding="UTF-8"?>
<svg width="200px" height="60px" viewBox="0 0 200 60" version="1.1" xmlns="http://www.w3.org/2000/svg" xmlns:xlink="http://www.w3.org/1999/xlink">
    <!-- Generator: Sketch 45.2 (43514) - http://www.bohemiancoding.com/sketch -->
    <title>Appstore</title>
    <desc>Created with Sketch.</desc>
    <defs>
        <rect id="path-1" x="0" y="0" width="200" height="60" rx="4.69022123"></rect>
    </defs>
    <g id="Page-1" stroke="none" stroke-width="1" fill="none" fill-rule="evenodd">
        <g id="ml-home-01-DESKTOP" transform="translate(-430.000000, -680.000000)">
            <g id="hero">
                <g id="buttons" transform="translate(210.000000, 680.000000)">
                    <g id="Appstore" transform="translate(220.000000, 0.000000)">
                        <g id="backfround-copy">
                            <use fill="#000000" fill-rule="evenodd" xlink:href="#path-1"></use>
                            <rect stroke="#A6A6A6" stroke-width="1.17255531" x="0.586277654" y="0.586277654" width="198.827445" height="58.8274447" rx="4.69022123"></rect>
                            <rect stroke="#8F8F8F" stroke-width="0.586277654" x="0.293138827" y="0.293138827" width="199.413722" height="59.4137223" rx="4.69022123"></rect>
                        </g>
                        <path d="M76.7673629,47.000464 L80.1288363,47.000464 L72.7703168,25.9902815 L69.3664719,25.9902815 L62.0079524,47.000464 L65.2564351,47.000464 L67.1349055,41.4239568 L74.9030163,41.4239568 L76.7673629,47.000464 Z M70.9059702,29.8050201 L71.1460755,29.8050201 L74.0979576,38.6866635 L67.9399643,38.6866635 L70.9059702,29.8050201 Z M89.0418389,30.8824654 C86.9515109,30.8824654 85.1436597,31.9599106 84.2114864,33.7653594 L83.985505,33.7653594 L83.985505,31.1445467 L81.0618705,31.1445467 L81.0618705,52.1401691 L84.0984957,52.1401691 L84.0984957,44.5980523 L84.3386009,44.5980523 C85.1436597,46.2724605 86.8808917,47.2625453 89.0700866,47.2625453 C92.954142,47.2625453 95.4258136,44.1030099 95.4258136,39.0652253 C95.4258136,34.0274407 92.954142,30.8824654 89.0418389,30.8824654 L89.0418389,30.8824654 Z M88.1802848,44.4524516 C85.637994,44.4524516 84.0420003,42.3849215 84.0420003,39.0797854 C84.0420003,35.7600892 85.637994,33.6925591 88.1944086,33.6925591 C90.7649471,33.6925591 92.3044454,35.716409 92.3044454,39.0652253 C92.3044454,42.4286017 90.7649471,44.4524516 88.1802848,44.4524516 L88.1802848,44.4524516 Z M104.790779,30.8824654 C102.700451,30.8824654 100.8926,31.9599106 99.9604265,33.7653594 L99.7344451,33.7653594 L99.7344451,31.1445467 L96.8108106,31.1445467 L96.8108106,52.1401691 L99.8474358,52.1401691 L99.8474358,44.5980523 L100.087541,44.5980523 C100.8926,46.2724605 102.629832,47.2625453 104.819027,47.2625453 C108.703082,47.2625453 111.174754,44.1030099 111.174754,39.0652253 C111.174754,34.0274407 108.703082,30.8824654 104.790779,30.8824654 L104.790779,30.8824654 Z M103.929225,44.4524516 C101.386934,44.4524516 99.7909404,42.3849215 99.7909404,39.0797854 C99.7909404,35.7600892 101.386934,33.6925591 103.943349,33.6925591 C106.513887,33.6925591 108.053386,35.716409 108.053386,39.0652253 C108.053386,42.4286017 106.513887,44.4524516 103.929225,44.4524516 L103.929225,44.4524516 Z M117.602822,41.3511565 C117.828803,45.1076548 120.865428,47.5100665 125.385056,47.5100665 C130.215409,47.5100665 133.23791,44.9911742 133.23791,40.9725946 C133.23791,37.8130592 131.514802,36.0658507 127.334146,35.0612058 L125.088456,34.493363 C122.433174,33.8527199 121.359763,32.9936757 121.359763,31.4939884 C121.359763,29.6011791 123.026375,28.3635731 125.526295,28.3635731 C127.8991,28.3635731 129.537465,29.572059 129.834065,31.5085484 L132.913062,31.5085484 C132.729452,27.9704512 129.706951,25.480679 125.568666,25.480679 C121.119657,25.480679 118.153651,27.9704512 118.153651,31.7123894 C118.153651,34.7991245 119.834388,36.6336934 123.52071,37.5218578 L126.147744,38.177061 C128.845397,38.8322642 130.031799,39.7932289 130.031799,41.3948367 C130.031799,43.2585258 128.167452,44.6126124 125.625162,44.6126124 C122.899261,44.6126124 121.006667,43.3458862 120.738314,41.3511565 L117.602822,41.3511565 Z M135.851681,27.3006879 L135.851681,31.217347 L133.323514,31.217347 L133.323514,33.8527199 L135.851681,33.8527199 L135.851681,42.8071636 C135.851681,45.8647785 137.193446,47.0878245 140.569043,47.0878245 C141.162244,47.0878245 141.713074,47.0150241 142.193284,46.9276637 L142.193284,44.321411 C141.769569,44.3650912 141.529464,44.3942113 141.063377,44.3942113 C139.552127,44.3942113 138.888306,43.6662078 138.888306,42.0063597 L138.888306,33.8527199 L142.334523,33.8527199 L142.334523,31.217347 L138.888306,31.217347 L138.888306,27.3006879 L135.851681,27.3006879 Z M149.863389,44.525252 C147.222232,44.525252 145.739229,42.5305222 145.739229,39.0652253 C145.739229,35.6290485 147.222232,33.6197587 149.863389,33.6197587 C152.490423,33.6197587 153.98755,35.6290485 153.98755,39.0652253 C153.98755,42.5159622 152.490423,44.525252 149.863389,44.525252 L149.863389,44.525252 Z M149.863389,47.3062255 C154.35477,47.3062255 157.108918,44.2049304 157.108918,39.0652253 C157.108918,33.9546404 154.340646,30.8387852 149.863389,30.8387852 C145.372009,30.8387852 142.603737,33.9546404 142.603737,39.0652253 C142.603737,44.2049304 145.357885,47.3062255 149.863389,47.3062255 L149.863389,47.3062255 Z M158.493915,47.000464 L161.53054,47.000464 L161.53054,37.6383383 C161.53054,35.4106475 163.154781,33.9109602 165.442843,33.9109602 C165.951301,33.9109602 166.883475,34.0128807 167.12358,34.1002411 L167.12358,31.013506 C166.798732,30.9261456 166.219654,30.8824654 165.781815,30.8824654 C163.77623,30.8824654 162.08137,32.0181509 161.643531,33.5760785 L161.417549,33.5760785 L161.417549,31.1445467 L158.493915,31.1445467 L158.493915,47.000464 Z M173.960378,33.5032782 C176.206069,33.5032782 177.674948,35.1194461 177.745567,37.6092182 L169.977456,37.6092182 C170.146942,35.1340061 171.714688,33.5032782 173.960378,33.5032782 L173.960378,33.5032782 Z M177.731443,42.7198031 C177.16649,43.9574092 175.909468,44.6417325 174.073369,44.6417325 C171.644069,44.6417325 170.076323,42.8799639 169.977456,40.0989904 L169.977456,39.9242695 L180.838687,39.9242695 L180.838687,38.8322642 C180.838687,33.8527199 178.254025,30.8387852 173.974502,30.8387852 C169.638484,30.8387852 166.884336,34.0565609 166.884336,39.1234656 C166.884336,44.1903703 169.581989,47.3062255 173.988626,47.3062255 C177.505462,47.3062255 179.963009,45.559017 180.655077,42.7198031 L177.731443,42.7198031 Z" id="App-Store" fill="#FFFFFF"></path>
                        <path d="M64.8537039,9.5905108 L64.8537039,19.5953596 L68.3577608,19.5953596 C71.2497848,19.5953596 72.9244684,17.7580173 72.9244684,14.5617351 C72.9244684,11.4139864 71.2363335,9.5905108 68.3577608,9.5905108 L64.8537039,9.5905108 Z M66.3602466,11.0049177 L68.1896199,11.0049177 C70.2005854,11.0049177 71.3910232,12.3222575 71.3910232,14.5825352 C71.3910232,16.8774797 70.2207623,18.1809527 68.1896199,18.1809527 L66.3602466,18.1809527 L66.3602466,11.0049177 Z M78.2256155,18.4166872 C76.9679214,18.4166872 76.2617295,17.4668159 76.2617295,15.8166745 C76.2617295,14.1803999 76.9679214,13.2235952 78.2256155,13.2235952 C79.476584,13.2235952 80.1895015,14.1803999 80.1895015,15.8166745 C80.1895015,17.4598825 79.476584,18.4166872 78.2256155,18.4166872 L78.2256155,18.4166872 Z M78.2256155,19.7409603 C80.3643681,19.7409603 81.6758673,18.2641531 81.6758673,15.8166745 C81.6758673,13.3830626 80.3576425,11.8993221 78.2256155,11.8993221 C76.0868629,11.8993221 74.7686381,13.3830626 74.7686381,15.8166745 C74.7686381,18.2641531 76.0801373,19.7409603 78.2256155,19.7409603 L78.2256155,19.7409603 Z M93.0099109,12.0449228 L91.5638989,12.0449228 L90.2591253,17.8065509 L90.1447895,17.8065509 L88.6382468,12.0449228 L87.2527656,12.0449228 L85.7462229,17.8065509 L85.6386127,17.8065509 L84.3271135,12.0449228 L82.8609246,12.0449228 L84.8786157,19.5953596 L86.3649815,19.5953596 L87.8715242,14.0347992 L87.98586,14.0347992 L89.4991284,19.5953596 L90.9989454,19.5953596 L93.0099109,12.0449228 Z M94.8473549,19.5953596 L96.2933669,19.5953596 L96.2933669,15.1788047 C96.2933669,14.0001323 97.0062844,13.2651954 98.1698196,13.2651954 C99.2459216,13.2651954 99.7705213,13.8683983 99.7705213,15.0817376 L99.7705213,19.5953596 L101.216533,19.5953596 L101.216533,14.7073358 C101.216533,12.9115937 100.295121,11.8993221 98.6607912,11.8993221 C97.5577867,11.8993221 96.7036308,12.4054579 96.347172,13.2443953 L96.2395618,13.2443953 L96.2395618,12.0449228 L94.8473549,12.0449228 L94.8473549,19.5953596 Z M103.659285,19.5953596 L105.105297,19.5953596 L105.105297,9.09824173 L103.659285,9.09824173 L103.659285,19.5953596 Z M110.709097,18.4166872 C109.451403,18.4166872 108.745211,17.4668159 108.745211,15.8166745 C108.745211,14.1803999 109.451403,13.2235952 110.709097,13.2235952 C111.960066,13.2235952 112.672983,14.1803999 112.672983,15.8166745 C112.672983,17.4598825 111.960066,18.4166872 110.709097,18.4166872 L110.709097,18.4166872 Z M110.709097,19.7409603 C112.84785,19.7409603 114.159349,18.2641531 114.159349,15.8166745 C114.159349,13.3830626 112.841124,11.8993221 110.709097,11.8993221 C108.570345,11.8993221 107.25212,13.3830626 107.25212,15.8166745 C107.25212,18.2641531 108.563619,19.7409603 110.709097,19.7409603 L110.709097,19.7409603 Z M118.633243,18.4652208 C117.846343,18.4652208 117.274664,18.0700189 117.274664,17.3905489 C117.274664,16.7249456 117.732008,16.3713439 118.740853,16.3020102 L120.529873,16.184143 L120.529873,16.8150794 C120.529873,17.751084 119.722796,18.4652208 118.633243,18.4652208 L118.633243,18.4652208 Z M118.263333,19.7201602 C119.225099,19.7201602 120.02545,19.2902915 120.462616,18.5345545 L120.576952,18.5345545 L120.576952,19.5953596 L121.969159,19.5953596 L121.969159,14.4369345 C121.969159,12.84226 120.933411,11.8993221 119.097312,11.8993221 C117.43608,11.8993221 116.252367,12.7313261 116.104403,14.0278658 L117.503336,14.0278658 C117.664751,13.4939965 118.222979,13.1889284 119.030056,13.1889284 C120.018724,13.1889284 120.529873,13.6395972 120.529873,14.4369345 L120.529873,15.088671 L118.54581,15.2065382 C116.80387,15.3174721 115.821927,16.1009426 115.821927,17.4598825 C115.821927,18.8396226 116.850949,19.7201602 118.263333,19.7201602 L118.263333,19.7201602 Z M127.04836,19.7201602 C128.057206,19.7201602 128.911361,19.2278912 129.348528,18.4028205 L129.462864,18.4028205 L129.462864,19.5953596 L130.848345,19.5953596 L130.848345,9.09824173 L129.402333,9.09824173 L129.402333,13.2443953 L129.294723,13.2443953 C128.89791,12.4123912 128.05048,11.9201222 127.04836,11.9201222 C125.19881,11.9201222 124.008372,13.4315962 124.008372,15.8166745 C124.008372,18.2086862 125.185359,19.7201602 127.04836,19.7201602 L127.04836,19.7201602 Z M127.458624,13.258262 C128.669239,13.258262 129.429236,14.2497335 129.429236,15.8236079 C129.429236,17.4044156 128.675964,18.3820204 127.458624,18.3820204 C126.234558,18.3820204 125.501463,17.4182823 125.501463,15.8166745 C125.501463,14.2289334 126.241284,13.258262 127.458624,13.258262 L127.458624,13.258262 Z M140.562855,18.4166872 C139.305161,18.4166872 138.598969,17.4668159 138.598969,15.8166745 C138.598969,14.1803999 139.305161,13.2235952 140.562855,13.2235952 C141.813824,13.2235952 142.526741,14.1803999 142.526741,15.8166745 C142.526741,17.4598825 141.813824,18.4166872 140.562855,18.4166872 L140.562855,18.4166872 Z M140.562855,19.7409603 C142.701608,19.7409603 144.013107,18.2641531 144.013107,15.8166745 C144.013107,13.3830626 142.694882,11.8993221 140.562855,11.8993221 C138.424103,11.8993221 137.105878,13.3830626 137.105878,15.8166745 C137.105878,18.2641531 138.417377,19.7409603 140.562855,19.7409603 L140.562855,19.7409603 Z M146.092674,19.5953596 L147.538686,19.5953596 L147.538686,15.1788047 C147.538686,14.0001323 148.251603,13.2651954 149.415139,13.2651954 C150.491241,13.2651954 151.01584,13.8683983 151.01584,15.0817376 L151.01584,19.5953596 L152.461852,19.5953596 L152.461852,14.7073358 C152.461852,12.9115937 151.54044,11.8993221 149.90611,11.8993221 C148.803106,11.8993221 147.94895,12.4054579 147.592491,13.2443953 L147.484881,13.2443953 L147.484881,12.0449228 L146.092674,12.0449228 L146.092674,19.5953596 Z M159.459205,10.2145138 L159.459205,12.0795896 L158.255316,12.0795896 L158.255316,13.3345291 L159.459205,13.3345291 L159.459205,17.5985499 C159.459205,19.054557 160.09814,19.6369598 161.705568,19.6369598 C161.988045,19.6369598 162.250344,19.602293 162.479016,19.5606928 L162.479016,18.3196201 C162.277247,18.3404202 162.162911,18.3542869 161.940965,18.3542869 C161.221322,18.3542869 160.905217,18.0076185 160.905217,17.2172147 L160.905217,13.3345291 L162.546272,13.3345291 L162.546272,12.0795896 L160.905217,12.0795896 L160.905217,10.2145138 L159.459205,10.2145138 Z M164.605662,19.5953596 L166.051674,19.5953596 L166.051674,15.1857381 C166.051674,14.0417325 166.784769,13.2721288 167.968481,13.2721288 C169.058034,13.2721288 169.602811,13.8822651 169.602811,15.088671 L169.602811,19.5953596 L171.048823,19.5953596 L171.048823,14.7212025 C171.048823,12.9254604 170.107234,11.9062554 168.459452,11.9062554 C167.356448,11.9062554 166.509018,12.4123912 166.152559,13.258262 L166.038223,13.258262 L166.038223,9.09824173 L164.605662,9.09824173 L164.605662,19.5953596 Z M176.437403,13.1681283 C177.506779,13.1681283 178.206246,13.937732 178.239874,15.1233378 L174.540774,15.1233378 C174.621481,13.9446654 175.368027,13.1681283 176.437403,13.1681283 L176.437403,13.1681283 Z M178.233148,17.5569497 C177.964123,18.1462859 177.365541,18.4721541 176.491208,18.4721541 C175.334399,18.4721541 174.587853,17.6332167 174.540774,16.3089436 L174.540774,16.2257432 L179.712788,16.2257432 L179.712788,15.7057406 C179.712788,13.3345291 178.481997,11.8993221 176.444129,11.8993221 C174.379358,11.8993221 173.067859,13.4315962 173.067859,15.844408 C173.067859,18.2572198 174.352456,19.7409603 176.450854,19.7409603 C178.125538,19.7409603 179.295799,18.9089563 179.625355,17.5569497 L178.233148,17.5569497 Z" id="Download-on-the" fill="#FFFFFF"></path>
                        <g id="logo_apple" transform="translate(17.906336, 9.513689)" fill="#FFFFFF">
                            <path d="M26.6309596,21.378002 C26.586633,16.2994852 30.6646745,13.8287702 30.8511517,13.7137433 C28.5415862,10.2424517 24.9618361,9.7681627 23.7038795,9.73034564 C20.6973174,9.40417344 17.7809369,11.5849576 16.2493786,11.5849576 C14.6872502,11.5849576 12.3287727,9.76185986 9.78687497,9.81543404 C6.51588213,9.8674325 3.45582248,11.8197385 1.77752803,14.8514067 C-1.68605597,21.0329213 0.897111267,30.1168957 4.21548764,35.1134756 C5.87544008,37.5621306 7.81510826,40.292838 10.353949,40.1967196 C12.8377636,40.0927226 13.7655639,38.5642829 16.762955,38.5642829 C19.7328331,38.5642829 20.6040788,40.1967196 23.1933601,40.1336911 C25.8590664,40.0927226 27.5373608,37.6771575 29.1392302,35.2064426 C31.0574994,32.4048282 31.8278641,29.6394553 31.8584341,29.4976413 C31.797294,29.477157 26.6829286,27.464974 26.6309596,21.378002" id="Fill-2"></path>
                            <path d="M21.7397553,6.4434123 C23.0756655,4.72116008 23.9897093,2.37807769 23.735978,0.000329651135 C21.8024239,0.0885694722 19.3843348,1.37907686 17.9918701,3.06351201 C16.759898,4.54783186 15.6593771,6.98072978 15.9436783,9.26866229 C18.1156787,9.43568766 20.3457621,8.13887743 21.7397553,6.4434123" id="Fill-3"></path>
                        </g>
                    </g>
                </g>
            </g>
        </g>
    </g>
</svg>