<?xml version="1.0" encoding="UTF-8"?>
<svg width="85px" height="85px" viewBox="0 0 85 85" version="1.1" xmlns="http://www.w3.org/2000/svg" xmlns:xlink="http://www.w3.org/1999/xlink">
    <!-- Generator: Sketch 46.2 (44496) - http://www.bohemiancoding.com/sketch -->
    <title>Group@3x</title>
    <desc>Created with Sketch.</desc>
    <defs></defs>
    <g id="Page-1" stroke="none" stroke-width="1" fill="none" fill-rule="evenodd">
        <g id="ml-home-D" transform="translate(-800.000000, -1828.000000)">
            <g id="features" transform="translate(0.000000, 1644.000000)">
                <g id="feature" transform="translate(800.000000, 184.000000)">
                    <g id="Group">
                        <circle id="icon" fill="#59BAFF" cx="42.5" cy="42.5" r="42.5"></circle>
                        <g id="Group-3" transform="translate(16.000000, 16.000000)">
                            <path d="M0,27.5 C0,42.6878306 12.3121694,55 27.5,55 C42.6878306,55 55,42.6878306 55,27.5 C55,12.3121694 42.6878306,0 27.5,0 C19.9060847,0 13.0310847,3.07804235 8.05456352,8.05456352 C7.08279318,9.02633385 5.65854559,10.4971703 3.05555556,13.75" id="Oval" stroke="" stroke-width="3"></path>
                            <circle id="Oval-4" cx="27.5" cy="27.5" r="26"></circle>
                            <polyline id="Rectangle-7" stroke="#FFFFFF" stroke-width="3" points="14.4462936 14.4462936 1.5219184 14.4462936 1.5219184 1.5219184"></polyline>
                            <polyline id="clock-arrows" stroke="#FFFFFF" stroke-width="3" points="27.3945312 7.60959201 27.3945312 27.3945313 38.0479601 33.4822049"></polyline>
                        </g>
                    </g>
                </g>
            </g>
        </g>
    </g>
</svg>