<?xml version="1.0" encoding="UTF-8"?>
<svg width="85px" height="85px" viewBox="0 0 85 85" version="1.1" xmlns="http://www.w3.org/2000/svg" xmlns:xlink="http://www.w3.org/1999/xlink">
    <!-- Generator: Sketch 46.2 (44496) - http://www.bohemiancoding.com/sketch -->
    <title>icon@3x</title>
    <desc>Created with Sketch.</desc>
    <defs></defs>
    <g id="Page-1" stroke="none" stroke-width="1" fill="none" fill-rule="evenodd">
        <g id="ml-home-D" transform="translate(-160.000000, -1828.000000)">
            <g id="features" transform="translate(0.000000, 1644.000000)">
                <g id="feature" transform="translate(150.000000, 174.000000)">
                    <g id="icon">
                        <circle fill="#59BAFF" cx="52.5" cy="52.5" r="42.5"></circle>
                        <g id="Group-7" transform="translate(15.000000, 15.000000)" stroke="#FFFFFF" stroke-width="3" stroke-linecap="square">
                            <path d="M37.5,0.451807229 L37.5,7.45180723" id="Line-3"></path>
                            <path d="M37.9518072,74.5481928 L37.9518072,67.5481928" id="Line-3"></path>
                            <path d="M0.451807229,37.9518072 L7.45180723,37.9518072" id="Line-3"></path>
                            <path d="M74.5481928,37.9518072 L67.5481928,37.9518072" id="Line-3"></path>
                        </g>
                        <g id="Group-7" transform="translate(52.416528, 52.451807) rotate(60.000000) translate(-52.416528, -52.451807) translate(14.916528, 13.951807)" stroke="#FFFFFF" stroke-width="3" stroke-linecap="square">
                            <path d="M37.5,1.35542169 L37.5,2.25903614" id="Line-3"></path>
                            <path d="M37.9518072,75.4518072 L37.9518072,74.5481928" id="Line-3"></path>
                            <path d="M0.451807229,38.8554217 L1.35542169,38.8554217" id="Line-3"></path>
                            <path d="M74.5481928,38.8554217 L73.6445783,38.8554217" id="Line-3"></path>
                        </g>
                        <g id="Group-7" transform="translate(52.451807, 52.487087) rotate(30.000000) translate(-52.451807, -52.487087) translate(14.951807, 13.987087)" stroke="#FFFFFF" stroke-width="3" stroke-linecap="square">
                            <path d="M37.5,1.35542169 L37.5,2.25903614" id="Line-3"></path>
                            <path d="M37.9518072,75.4518072 L37.9518072,74.5481928" id="Line-3"></path>
                            <path d="M0.451807229,38.8554217 L1.35542169,38.8554217" id="Line-3"></path>
                            <path d="M74.5481928,38.8554217 L73.6445783,38.8554217" id="Line-3"></path>
                        </g>
                        <path d="M38.9108911,44 C33.9895418,44 30,47.8055796 30,52.5 C30,57.1944204 33.9895418,61 38.9108911,61 C42.1505698,61 46.6802728,58.2374146 52.5,52.7122439 C58.3197272,58.2374146 62.8494302,61 66.0891089,61 C71.0104582,61 75,57.1944204 75,52.5 C75,47.8055796 71.0104582,44 66.0891089,44 C62.8494302,44 58.3197272,46.7625854 52.5,52.2877561 C45.6003799,46.7625854 41.0706769,44 38.9108911,44 Z" id="Combined-Shape" stroke="#FFFFFF" stroke-width="3"></path>
                    </g>
                </g>
            </g>
        </g>
    </g>
</svg>