<?xml version="1.0" encoding="UTF-8"?>
<svg width="225px" height="62px" viewBox="0 0 225 62" version="1.1" xmlns="http://www.w3.org/2000/svg" xmlns:xlink="http://www.w3.org/1999/xlink">
    <!-- Generator: Sketch 46.2 (44496) - http://www.bohemiancoding.com/sketch -->
    <title>logo</title>
    <desc>Created with Sketch.</desc>
    <defs>
        <path d="M19,17.2808949 C18.1998295,17.1577025 17.3801054,17.093793 16.5454545,17.093793 C7.70889855,17.093793 0.545454545,24.257237 0.545454545,33.093793 C0.545454545,41.930349 7.70889855,49.093793 16.5454545,49.093793 C25.3820105,49.093793 32.5454545,41.930349 32.5454545,33.093793 C32.5454545,31.6787783 32.3617679,30.3066659 32.0169385,29 L49,29 L49,0 L19,0 L19,17.2808949 L19,17.2808949 Z" id="path-1"></path>
    </defs>
    <g id="Page-1" stroke="none" stroke-width="1" fill="none" fill-rule="evenodd">
        <g id="ml-home-D" transform="translate(-160.000000, -30.000000)">
            <g id="header">
                <g id="logo" transform="translate(160.000000, 28.000000)">
                    <g id="logo-sign">
                        <path d="M30.5454545,63.6392475 C47.4152433,63.6392475 61.0909091,49.9635817 61.0909091,33.093793 C61.0909091,20.9985953 54.0609122,10.5453413 43.8640116,5.5971245 C39.8387753,3.64381109 35.3200456,2.54833842 30.5454545,2.54833842 C13.6756658,2.54833842 0,16.2240042 0,33.093793 C0,49.9635817 13.6756658,63.6392475 30.5454545,63.6392475 Z" id="Oval-2" fill="#4DB5FF"></path>
                        <path d="M30.5454545,56.3665202 C43.3986269,56.3665202 53.8181818,45.9469653 53.8181818,33.093793 C53.8181818,23.8784042 48.4619937,15.9140203 40.6929266,12.1439503 C37.6260798,10.6557115 34.1832382,9.82106569 30.5454545,9.82106569 C17.6922822,9.82106569 7.27272727,20.2406206 7.27272727,33.093793 C7.27272727,45.9469653 17.6922822,56.3665202 30.5454545,56.3665202 Z" id="Oval-2" fill="#A3CEFF"></path>
                        <path d="M30.5454545,49.093793 C39.3820105,49.093793 46.5454545,41.930349 46.5454545,33.093793 C46.5454545,26.7582132 42.8630752,21.2826993 37.5218416,18.6907761 C35.4133844,17.667612 33.0464308,17.093793 30.5454545,17.093793 C21.7088985,17.093793 14.5454545,24.257237 14.5454545,33.093793 C14.5454545,41.930349 21.7088985,49.093793 30.5454545,49.093793 Z" id="Oval-2" fill="#FFFFFF"></path>
                        <g id="Rectangle" transform="translate(14.000000, 0.000000)">
                            <mask id="mask-2" fill="white">
                                <use xlink:href="#path-1"></use>
                            </mask>
                            <g id="Mask"></g>
                            <polyline stroke="#0A7BCC" stroke-width="8" mask="url(#mask-2)" transform="translate(21.403409, 17.221590) rotate(45.000000) translate(-21.403409, -17.221590) " points="29.4487882 0.767326272 30.7183646 33.6758544 12.0884524 33.6758544"></polyline>
                        </g>
                    </g>
                    <path d="M87.5980024,41.8899992 C88.7860026,41.8899992 89.3800027,41.3679991 90.0100028,40.1259989 L94.1860035,31.8999976 L94.1860035,43.5099995 C94.1860035,44.6799997 94.2220035,45.0939997 94.5280035,45.7059998 C94.9060036,46.4079999 95.7160037,46.894 96.7060039,46.894 C97.696004,46.894 98.5060042,46.4079999 98.8840042,45.7059998 C99.1900043,45.0939997 99.2260043,44.6799997 99.2260043,43.5099995 L99.2260043,24.0879963 C99.2260043,22.9899961 99.0820043,22.269996 98.4700042,21.6579959 C98.0200041,21.2079958 97.462004,20.9739958 96.7780039,20.9739958 C96.1840038,20.9739958 95.7340037,21.0819958 95.2840037,21.3879958 C94.7800036,21.7119959 94.3300035,22.323996 94.0060034,22.9359961 L87.5980024,35.1399981 L81.1900013,22.9359961 C80.8660013,22.323996 80.4160012,21.7119959 79.9120011,21.3879958 C79.4620011,21.0819958 79.012001,20.9739958 78.4180009,20.9739958 C77.7340008,20.9739958 77.1760007,21.2079958 76.7260006,21.6579959 C76.1140005,22.269996 75.9700005,22.9899961 75.9700005,24.0879963 L75.9700005,43.5099995 C75.9700005,44.6799997 76.0060005,45.0939997 76.3120005,45.7059998 C76.6900006,46.4079999 77.5000007,46.894 78.4900009,46.894 C79.4800011,46.894 80.2900012,46.4079999 80.6680013,45.7059998 C80.9740013,45.0939997 81.0100013,44.6799997 81.0100013,43.5099995 L81.0100013,31.8999976 L85.186002,40.1259989 C85.8160021,41.3679991 86.4100022,41.8899992 87.5980024,41.8899992 Z M109.762001,31.7379975 C108.646001,31.7379975 107.782001,32.0259976 106.756001,32.6379977 C106.144001,32.9979977 105.622001,33.1239978 105.208001,33.1239978 C104.740001,33.1239978 104.218,32.9259977 103.876,32.4939977 C103.498,32.0439976 103.354,31.6299975 103.354,31.0899974 C103.354,30.0459973 104.236,29.3079971 105.100001,28.8579971 C106.468001,28.1379969 107.944001,27.7779969 109.834001,27.7779969 C115.054002,27.7779969 117.736003,30.0099973 117.736003,34.401998 L117.736003,43.7079995 C117.736003,44.9139997 117.682003,45.2739998 117.394003,45.8139998 C117.052003,46.462 116.260002,46.894 115.378002,46.894 C114.748002,46.894 114.244002,46.696 113.884002,46.3539999 C113.524002,46.0299999 113.344002,45.6699998 113.200002,45.1119997 C111.832002,46.4439999 110.698002,46.966 108.556001,46.966 C106.432001,46.966 104.848001,46.3719999 103.768,45.2739998 C102.778,44.2839996 102.22,42.7179993 102.22,41.0619991 C102.22,38.0739986 104.272,35.6259982 108.700001,35.6259982 L113.056002,35.6259982 L113.056002,34.689998 C113.056002,32.6379977 111.976002,31.7379975 109.762001,31.7379975 Z M113.056002,39.8379989 L113.056002,38.8299987 L109.492001,38.8299987 C107.620001,38.8299987 106.720001,39.5859988 106.720001,40.9899991 C106.720001,42.2859993 107.620001,43.1139994 109.564001,43.1139994 C110.716002,43.1139994 111.544002,42.9699994 112.336002,42.2139993 C112.894002,41.6919992 113.056002,41.0439991 113.056002,39.8379989 Z M122.512,41.3859991 C122.512,44.1219996 124.042001,46.75 127.930001,46.75 L128.182001,46.75 C129.082002,46.75 129.694002,46.642 130.108002,46.4259999 C130.666002,46.1379999 131.044002,45.5799998 131.044002,44.7519997 C131.044002,43.9059995 130.684002,43.3659994 130.108002,43.0779994 C129.712002,42.8799994 129.298002,42.8259994 128.704002,42.7899994 C127.516001,42.7179993 127.192001,42.0159992 127.192001,41.1339991 L127.192001,32.1339976 L128.596001,32.1339976 C129.478002,32.1339976 129.802002,32.0799976 130.180002,31.8819976 C130.738002,31.5939975 131.044002,31.0359974 131.044002,30.3339973 C131.044002,29.6319972 130.738002,29.0739971 130.180002,28.7859971 C129.802002,28.587997 129.478002,28.533997 128.596001,28.533997 L127.192001,28.533997 L127.192001,26.0319966 C127.192001,24.8979964 127.138001,24.4479963 126.886001,23.9439963 C126.544001,23.2599961 125.806001,22.8279961 124.852001,22.8279961 C123.898001,22.8279961 123.160001,23.2599961 122.818001,23.9439963 C122.566,24.4479963 122.512,24.8979964 122.512,26.0319966 L122.512,28.533997 L122.044,28.533997 C121.162,28.533997 120.838,28.587997 120.46,28.7859971 C119.902,29.0739971 119.596,29.6319972 119.596,30.3339973 C119.596,31.0359974 119.902,31.5939975 120.46,31.8819976 C120.838,32.0799976 121.162,32.1339976 122.044,32.1339976 L122.512,32.1339976 L122.512,41.3859991 Z M134.488,41.3859991 C134.488,44.1219996 136.018001,46.75 139.906001,46.75 L140.158001,46.75 C141.058002,46.75 141.670002,46.642 142.084002,46.4259999 C142.642002,46.1379999 143.020002,45.5799998 143.020002,44.7519997 C143.020002,43.9059995 142.660002,43.3659994 142.084002,43.0779994 C141.688002,42.8799994 141.274002,42.8259994 140.680001,42.7899994 C139.492001,42.7179993 139.168001,42.0159992 139.168001,41.1339991 L139.168001,32.1339976 L140.572001,32.1339976 C141.454002,32.1339976 141.778002,32.0799976 142.156002,31.8819976 C142.714002,31.5939975 143.020002,31.0359974 143.020002,30.3339973 C143.020002,29.6319972 142.714002,29.0739971 142.156002,28.7859971 C141.778002,28.587997 141.454002,28.533997 140.572001,28.533997 L139.168001,28.533997 L139.168001,26.0319966 C139.168001,24.8979964 139.114001,24.4479963 138.862001,23.9439963 C138.520001,23.2599961 137.782001,22.8279961 136.828001,22.8279961 C135.874001,22.8279961 135.136001,23.2599961 134.794,23.9439963 C134.542,24.4479963 134.488,24.8979964 134.488,26.0319966 L134.488,28.533997 L134.02,28.533997 C133.138,28.533997 132.814,28.587997 132.436,28.7859971 C131.878,29.0739971 131.572,29.6319972 131.572,30.3339973 C131.572,31.0359974 131.878,31.5939975 132.436,31.8819976 C132.814,32.0799976 133.138,32.1339976 134.02,32.1339976 L134.488,32.1339976 L134.488,41.3859991 Z M156.148002,35.6259982 C156.112002,34.815998 156.040002,34.275998 155.734002,33.5919978 C155.230002,32.4759977 154.168002,31.6659975 152.584001,31.6659975 C151.018001,31.6659975 149.938001,32.4759977 149.452001,33.5919978 C149.146001,34.275998 149.056001,34.815998 149.038001,35.6259982 L156.148002,35.6259982 Z M158.056002,38.8299987 L149.038001,38.8299987 C149.038001,41.2599991 150.460001,43.0059994 153.178002,43.0059994 C154.348002,43.0059994 155.500002,42.6819993 156.418002,41.9979992 C157.156002,41.4759991 157.606002,41.2959991 158.164002,41.2959991 C159.064002,41.2959991 160.054003,42.1779993 160.054003,43.2579994 C160.054003,44.1399996 159.298003,44.9499997 158.218002,45.6699998 C156.940002,46.534 155.176002,46.966 153.106002,46.966 C148.660001,46.966 144.43,44.9499997 144.43,37.3719985 C144.43,31.2519975 147.724001,27.7779969 152.584001,27.7779969 C157.642002,27.7779969 160.576003,31.4139975 160.738003,36.1479983 C160.756003,36.8679984 160.666003,37.6779985 160.108003,38.2359986 C159.514003,38.8299987 158.758002,38.8299987 158.056002,38.8299987 Z M168.340001,29.8119972 C168.232001,29.1279971 168.016001,28.731997 167.638001,28.389997 C167.278001,28.0479969 166.774001,27.8499969 166.144001,27.8499969 C165.262,27.8499969 164.47,28.281997 164.128,28.9299971 C163.84,29.4699972 163.786,29.8299972 163.786,31.0359974 L163.786,43.6899995 C163.786,44.8239997 163.84,45.2739998 164.092,45.7779998 C164.434,46.462 165.172,46.894 166.126001,46.894 C167.080001,46.894 167.818001,46.462 168.160001,45.7779998 C168.412001,45.2739998 168.466001,44.8239997 168.466001,43.6899995 L168.466001,35.4459981 C168.466001,33.0699978 170.014001,31.9899976 171.580001,31.9899976 C172.210002,31.9899976 172.804002,32.1879976 173.362002,32.4759977 C173.992002,32.7999977 174.496002,32.9619977 174.964002,32.9619977 C175.540002,32.9619977 176.116002,32.7279977 176.530002,32.3139976 C176.944002,31.8999976 177.232002,31.2879975 177.232002,30.6039974 C177.232002,29.7939972 176.746002,29.1099971 176.044002,28.641997 C175.198002,28.0839969 174.262002,27.7779969 172.804002,27.7779969 C170.950001,27.7779969 169.240001,28.731997 168.340001,29.8119972 Z M183.556001,24.1779963 C183.556001,23.0439961 183.502001,22.593996 183.250001,22.089996 C182.908001,21.4059958 182.170001,20.9739958 181.216001,20.9739958 C180.262,20.9739958 179.524,21.4059958 179.182,22.089996 C178.93,22.593996 178.876,23.0439961 178.876,24.1779963 L178.876,41.3859991 C178.876,44.1219996 180.406,46.75 184.294001,46.75 L184.546001,46.75 C185.446001,46.75 186.058001,46.642 186.472001,46.4259999 C187.030001,46.1379999 187.408002,45.5799998 187.408002,44.7519997 C187.408002,43.9059995 187.048001,43.3659994 186.472001,43.0779994 C186.076001,42.8799994 185.662001,42.8259994 185.068001,42.7899994 C183.880001,42.7179993 183.556001,42.0159992 183.556001,41.1339991 L183.556001,24.1779963 Z M193.966001,43.6899995 L193.966001,31.5939975 C193.966001,30.4599973 193.912001,30.0099973 193.660001,29.5059972 C193.318001,28.8219971 192.580001,28.389997 191.626,28.389997 C190.672,28.389997 189.934,28.8219971 189.592,29.5059972 C189.34,30.0099973 189.286,30.4599973 189.286,31.5939975 L189.286,43.6899995 C189.286,44.8239997 189.34,45.2739998 189.592,45.7779998 C189.934,46.462 190.672,46.894 191.626,46.894 C192.580001,46.894 193.318001,46.462 193.660001,45.7779998 C193.912001,45.2739998 193.966001,44.8239997 193.966001,43.6899995 Z M188.926,22.7199961 C188.926,24.2139963 190.132,25.4199965 191.626,25.4199965 C193.120001,25.4199965 194.326001,24.2139963 194.326001,22.7199961 C194.326001,21.2259958 193.120001,20.0199956 191.626,20.0199956 C190.132,20.0199956 188.926,21.2259958 188.926,22.7199961 Z M204.340001,27.7779969 C200.506,27.7779969 197.068,29.8479972 197.068,33.7359979 C197.068,37.1919984 199.192,38.7039987 202.576001,39.0279987 L205.528001,39.2979988 C207.004002,39.4419988 207.508002,40.1259989 207.508002,41.0439991 C207.508002,42.4479993 205.924001,43.0599994 204.196001,43.0599994 C202.468001,43.0599994 201.316001,42.7179993 200.038,41.9619992 C199.426,41.6019992 198.94,41.4219991 198.49,41.4219991 C198.004,41.4219991 197.644,41.5659992 197.248,41.8899992 C196.78,42.2679993 196.492,42.8619994 196.492,43.4919995 C196.492,44.2479996 196.978,44.8599997 197.626,45.2919998 C199.3,46.4259999 201.172001,46.966 204.124001,46.966 C208.534002,46.966 212.062002,44.9859997 212.062002,40.845999 C212.062002,37.6599985 210.172002,35.6979982 206.464001,35.3559981 L203.530001,35.0679981 C202.288001,34.9599981 201.586001,34.527998 201.586001,33.4299978 C201.586001,32.4579977 202.414001,31.5759975 204.232001,31.5759975 C205.564001,31.5759975 206.734001,31.9899976 207.868002,32.5119977 C208.372002,32.7459977 208.858002,32.9079977 209.236002,32.9079977 C209.776002,32.9079977 210.172002,32.7279977 210.550002,32.3499976 C210.874002,32.0259976 211.162002,31.4319975 211.162002,30.9099974 C211.162002,30.3699973 211.036002,29.9919973 210.676002,29.5959972 C210.388002,29.2899971 209.812002,28.9299971 209.182002,28.677997 C207.742002,28.0839969 206.248001,27.7779969 204.340001,27.7779969 Z M215.74,41.3859991 C215.74,44.1219996 217.27,46.75 221.158001,46.75 L221.410001,46.75 C222.310001,46.75 222.922001,46.642 223.336001,46.4259999 C223.894001,46.1379999 224.272002,45.5799998 224.272002,44.7519997 C224.272002,43.9059995 223.912001,43.3659994 223.336001,43.0779994 C222.940001,42.8799994 222.526001,42.8259994 221.932001,42.7899994 C220.744001,42.7179993 220.420001,42.0159992 220.420001,41.1339991 L220.420001,32.1339976 L221.824001,32.1339976 C222.706001,32.1339976 223.030001,32.0799976 223.408001,31.8819976 C223.966002,31.5939975 224.272002,31.0359974 224.272002,30.3339973 C224.272002,29.6319972 223.966002,29.0739971 223.408001,28.7859971 C223.030001,28.587997 222.706001,28.533997 221.824001,28.533997 L220.420001,28.533997 L220.420001,26.0319966 C220.420001,24.8979964 220.366001,24.4479963 220.114001,23.9439963 C219.772001,23.2599961 219.034001,22.8279961 218.080001,22.8279961 C217.126,22.8279961 216.388,23.2599961 216.046,23.9439963 C215.794,24.4479963 215.74,24.8979964 215.74,26.0319966 L215.74,28.533997 L215.272,28.533997 C214.39,28.533997 214.066,28.587997 213.688,28.7859971 C213.13,29.0739971 212.824,29.6319972 212.824,30.3339973 C212.824,31.0359974 213.13,31.5939975 213.688,31.8819976 C214.066,32.0799976 214.39,32.1339976 215.272,32.1339976 L215.74,32.1339976 L215.74,41.3859991 Z" id="Matterlist" fill="#FFFFFF"></path>
                </g>
            </g>
        </g>
    </g>
</svg>