<?xml version="1.0" encoding="UTF-8"?>
<svg width="200px" height="60px" viewBox="0 0 200 60" version="1.1" xmlns="http://www.w3.org/2000/svg" xmlns:xlink="http://www.w3.org/1999/xlink">
    <!-- Generator: Sketch 45.2 (43514) - http://www.bohemiancoding.com/sketch -->
    <title>Playstore</title>
    <desc>Created with Sketch.</desc>
    <defs>
        <rect id="path-1" x="0" y="0" width="199.383446" height="59.9791739" rx="5.71620713"></rect>
        <linearGradient x1="50%" y1="0%" x2="50%" y2="38.9125982%" id="linearGradient-2">
            <stop stop-color="#FBDA09" offset="0%"></stop>
            <stop stop-color="#FFBC00" offset="100%"></stop>
        </linearGradient>
        <path d="M20.3780041,3.5819304 L34.7812265,29.2462894 L34.7812265,29.2462894 C35.754513,30.9805386 35.137631,33.1754299 33.4033819,34.1487165 C32.8651441,34.4507836 32.2582976,34.609431 31.6410906,34.609431 L2.83506412,34.609431 L2.83506412,34.609431 C0.846369376,34.609431 -0.765786249,32.9972754 -0.765786249,31.0085806 C-0.765786249,30.3913888 -0.607146586,29.7845567 -0.30509355,29.2463283 L14.0977106,3.58196932 L14.0977106,3.58196932 C15.0709756,1.84770813 17.2658593,1.23079888 19.0001205,2.20406396 C19.5773206,2.52798784 20.054073,3.0047344 20.3780041,3.5819304 Z" id="path-3"></path>
        <linearGradient x1="0%" y1="58.4755255%" x2="69.3064856%" y2="39.0830098%" id="linearGradient-5">
            <stop stop-color="#01E2FF" offset="0%"></stop>
            <stop stop-color="#01C4FF" offset="100%"></stop>
        </linearGradient>
        <linearGradient x1="20.2810876%" y1="20.1019903%" x2="83.820166%" y2="83.6214476%" id="linearGradient-6">
            <stop stop-color="#28D781" offset="0%"></stop>
            <stop stop-color="#02F076" offset="100%"></stop>
        </linearGradient>
        <linearGradient x1="74.4881466%" y1="17.4301299%" x2="10.1079427%" y2="91.1838038%" id="linearGradient-7">
            <stop stop-color="#F2414E" offset="0%"></stop>
            <stop stop-color="#E02554" offset="100%"></stop>
        </linearGradient>
    </defs>
    <g id="Page-1" stroke="none" stroke-width="1" fill="none" fill-rule="evenodd">
        <g id="ml-home-01-DESKTOP" transform="translate(-210.000000, -680.000000)">
            <g id="hero">
                <g id="buttons" transform="translate(210.000000, 680.000000)">
                    <g id="Playstore">
                        <g id="background">
                            <use fill="#000000" fill-rule="evenodd" xlink:href="#path-1"></use>
                            <rect stroke="#A6A6A6" stroke-width="1.14324143" x="0.571620713" y="0.571620713" width="198.240205" height="58.8359325" rx="5.71620713"></rect>
                            <rect stroke="#8F8F8F" stroke-width="0.571620713" x="0.285810356" y="0.285810356" width="198.811825" height="59.4075532" rx="5.71620713"></rect>
                        </g>
                        <g id="get-it-on" transform="translate(61.142469, 10.056101)" fill="#FFFFFF">
                            <path d="M44.5160082,9.78431427 C41.8501092,9.78431427 39.6889711,7.59402091 39.6889711,4.89215713 C39.6889711,2.19029336 41.8501092,0 44.5160082,0 C47.1819071,0 49.3430452,2.19029336 49.3430452,4.89215713 C49.3430452,7.59402091 47.1819071,9.78431427 44.5160082,9.78431427 Z M44.5160082,8.28948848 C46.3673269,8.28948848 47.8681172,6.76845142 47.8681172,4.89215713 C47.8681172,3.01586284 46.3673269,1.49482579 44.5160082,1.49482579 C42.6646895,1.49482579 41.1638991,3.01586284 41.1638991,4.89215713 C41.1638991,6.76845142 42.6646895,8.28948848 44.5160082,8.28948848 Z" id="o"></path>
                            <path d="M11.7994238,5.43573015 L11.7994238,8.42538173 L15.6878703,8.42538173 L15.6878703,9.51252776 L10.3244959,9.51252776 L10.3244959,8.96895475 L10.3244959,1.0191994 L10.3244959,0.407679761 L15.6878703,0.407679761 L15.6878703,1.49482579 L11.7994238,1.49482579 L11.7994238,4.34858412 L15.2856173,4.34858412 L15.2856173,5.43573015 L11.7994238,5.43573015 Z" id="e"></path>
                            <path d="M20.9171605,1.49482579 L20.9171605,9.51252776 L19.4422325,9.51252776 L19.4422325,1.49482579 L17.1627983,1.49482579 L17.1627983,0.407679761 L23.1965946,0.407679761 L23.1965946,1.49482579 L20.9171605,1.49482579 Z" id="t"></path>
                            <path d="M34.0574279,1.49482579 L34.0574279,9.51252776 L32.5824999,9.51252776 L32.5824999,1.49482579 L30.3030658,1.49482579 L30.3030658,0.407679761 L36.3368621,0.407679761 L36.3368621,1.49482579 L34.0574279,1.49482579 Z" id="t"></path>
                            <rect id="i" x="27.4872942" y="0.407679761" width="1.47492798" height="9.104848"></rect>
                            <path d="M51.4213528,0.407679761 L50.5498044,0.407679761 L50.5498044,9.51252776 L52.0247324,9.51252776 L52.0247324,2.40630493 L56.315432,9.51252776 L57.052896,9.51252776 L57.79036,9.51252776 L57.79036,0.407679761 L56.315432,0.407679761 L56.315432,7.06976366 L52.2929012,0.407679761 L51.4213528,0.407679761 Z" id="n"></path>
                            <g id="g" transform="translate(0.000000, 0.135893)">
                                <polygon id="Rectangle-1" points="4.79797583 4.3717011 8.83627215 4.3717011 8.79628902 5.66701994 4.79797583 5.66701994"></polygon>
                                <path d="M8.04160006,1.32394393 C7.25559147,0.4837883 6.10577635,0 4.73800113,0 C2.12127536,0 0,2.14756809 0,4.79672759 C0,7.44588709 2.12127788,9.58965663 4.73800113,9.59345518 C7.39844124,9.6177266 9.61742697,7.71838945 9.17370791,4.41984863 C9.17370791,4.40376701 9.17364088,4.38771777 9.17350705,4.3717011 L7.99389471,4.3717011 C8.00349895,4.5094112 8.00684788,4.65113398 8.00365466,4.79672759 C8.00646598,7.15263617 6.66600159,8.25765762 4.77798426,8.25765762 C2.88996693,8.25765762 1.35942648,6.70814647 1.35942648,4.79672759 C1.35942648,2.88530871 2.88996693,1.33579756 4.77798426,1.33579756 C5.72252905,1.33579756 6.54115129,1.66286438 7.11752478,2.25947292 L8.04160006,1.32394393 Z" id="Oval-1"></path>
                            </g>
                        </g>
                        <g id="googleplay" transform="translate(60.472047, 26.091505)" fill="#FFFFFF">
                            <g id="big-P" transform="translate(83.668642, 0.679466)">
                                <path d="M0.67042181,4.77616107e-07 L8.27205227,0 C8.27205227,0 12.6481014,0.754579141 12.648101,5.84745935 C12.6481007,10.9403396 8.27205227,11.6949187 8.27205227,11.6949187 L0.67042181,11.6949192 L0.67042181,4.77616107e-07 Z M2.14534979,2.82887801 L2.14534979,9.104848 L7.30570795,9.104848 C7.30570795,9.104848 9.65407406,9.104848 9.65407406,5.966863 C9.65407406,2.82887801 7.30570795,2.82887801 7.30570795,2.82887801 L2.14534979,2.82887801 Z" id="Combined-Shape"></path>
                                <rect id="Rectangle-6" x="0" y="0" width="2.68168724" height="19.0250555"></rect>
                            </g>
                            <rect id="y" x="97.8815842" y="0.679466269" width="2.68168724" height="19.0250555"></rect>
                            <path d="M110.50268,18.3442484 C109.764048,18.961895 108.583162,19.543203 106.71807,19.6612589 C102.445244,19.9317186 102.443018,15.9800643 102.443018,15.7135864 C102.443018,15.4471085 102.232267,12.2244873 105.631188,11.7122335 C108.037958,11.3495073 109.723644,11.9538788 110.50268,12.3376194 L110.50268,11.7786299 C110.311639,11.0383068 109.718791,9.67801495 107.941459,9.67801495 C105.499669,9.67801495 104.960439,11.0159796 104.960439,11.0159796 L102.726703,9.67801495 C102.726703,9.67801495 103.976661,7.06644919 107.727238,7.06644919 C112.390717,7.0664492 113.184645,10.3264441 113.184645,11.4244058 C113.184645,11.4297502 113.184552,11.43506 113.184367,11.4403354 L113.184367,19.6984172 L110.50268,19.6984172 L110.50268,18.3442484 Z M110.311112,14.2691898 C110.311112,14.2691898 105.144805,12.8579039 104.965218,15.7993823 C104.785631,18.7408607 109.92156,17.3284468 110.380445,15.2432684 C110.380445,14.5801915 110.311112,14.2691898 110.311112,14.2691898 Z" id="a"></path>
                            <path d="M118.21637,18.982714 L115.714804,25.0043587 L118.396492,25.0043587 L125.651713,7.53995225 L122.970025,7.53995225 L119.557214,15.755102 L116.117057,7.47412895 L113.43537,7.47412895 L118.21637,18.982714 Z" id="y"></path>
                            <path d="M77.6650611,11.9213248 L69.1836935,15.4737774 C69.1836935,15.4737774 69.7314515,17.4386333 72.2814356,17.4518026 C74.2781681,17.4621147 75.4053351,15.6581074 75.4053351,15.6581074 L77.5571718,17.1350549 C77.5571718,17.1350549 75.8207575,19.9812523 72.2644862,19.9812523 C67.8943191,19.9812523 65.9695061,16.108344 65.9695061,13.5931496 C65.9695061,11.1698247 67.4973126,7.06644919 71.9932963,7.06644919 C76.4892799,7.06644919 77.6650611,11.9213248 77.6650611,11.9213248 Z M74.4380801,10.9149669 C74.4380801,10.9149669 73.3710063,9.26953812 71.7344925,9.57299155 C68.2727464,10.2148919 68.7083778,13.2851364 68.7083778,13.2851364 L74.4380801,10.9149669 Z" id="e"></path>
                            <rect id="i" x="61.9469752" y="0.679466269" width="2.83706397" height="18.9850869"></rect>
                            <path d="M57.4068647,7.47905683 L60.029454,7.50201881 L60.029454,19.4810267 C60.029454,22.5416303 58.2315168,25.7723911 53.9987373,25.7723911 C49.7659578,25.7723911 48.3989259,21.9715009 48.3989259,21.9715009 L50.8075293,20.9448724 C50.8075293,20.9448724 51.5421379,23.2873584 54.1239019,23.2873553 C57.0639659,23.2873518 57.4071907,20.5764596 57.4071907,19.6485133 L57.4071907,18.3485135 C57.4071907,18.3485135 56.3899025,19.9621599 53.8631424,19.9621635 C51.1236188,19.9621673 47.8681172,17.583342 47.8681172,13.5279165 C47.8681172,9.47249095 50.9335902,7.15283305 53.894841,7.06845488 C56.2667755,7.00086875 57.4068647,8.66383495 57.4068647,8.66383495 L57.4068647,7.47905683 Z M54.0870696,17.5278864 C55.9995693,17.5278864 57.5499565,15.752349 57.5499565,13.5621127 C57.5499565,11.3718763 55.9995693,9.59633898 54.0870696,9.59633898 C52.17457,9.59633898 50.6241827,11.3718763 50.6241827,13.5621127 C50.6241827,15.752349 52.17457,17.5278864 54.0870696,17.5278864 Z" id="g"></path>
                            <path d="M40.3067375,19.9763083 C36.7812864,19.9763083 33.9233436,17.0863379 33.9233436,13.5213787 C33.9233436,9.95641959 36.7812864,7.06644919 40.3067375,7.06644919 C43.8321886,7.06644919 46.6901314,9.95641959 46.6901314,13.5213787 C46.6901314,17.0863379 43.8321886,19.9763083 40.3067375,19.9763083 Z M40.265016,17.4449634 C42.2466421,17.4449634 43.8530675,15.6883147 43.8530675,13.5213787 C43.8530675,11.3544428 42.2466421,9.59779412 40.265016,9.59779412 C38.2833898,9.59779412 36.6769645,11.3544428 36.6769645,13.5213787 C36.6769645,15.6883147 38.2833898,17.4449634 40.265016,17.4449634 Z" id="o"></path>
                            <path d="M26.4960482,19.9763083 C22.9705971,19.9763083 20.1126543,17.0863379 20.1126543,13.5213787 C20.1126543,9.95641959 22.9705971,7.06644919 26.4960482,7.06644919 C30.0214993,7.06644919 32.8794421,9.95641959 32.8794421,13.5213787 C32.8794421,17.0863379 30.0214993,19.9763083 26.4960482,19.9763083 Z M26.4543267,17.4449634 C28.4359528,17.4449634 30.0423782,15.6883147 30.0423782,13.5213787 C30.0423782,11.3544428 28.4359528,9.59779412 26.4543267,9.59779412 C24.4727006,9.59779412 22.8662752,11.3544428 22.8662752,13.5213787 C22.8662752,15.6883147 24.4727006,17.4449634 26.4543267,17.4449634 Z" id="o"></path>
                            <g id="big-g">
                                <polygon id="Rectangle-1" points="10.0131669 9.11284172 18.4409158 9.11284172 18.3574727 11.812943 10.0131669 11.812943"></polygon>
                                <path d="M16.7824697,2.75977044 C15.1421039,1.00846012 12.7424898,0 9.88800236,0 C4.42700945,0 0,4.47662081 0,9.99881244 C0,15.5210041 4.42701471,19.9897068 9.88800236,19.9976249 C15.4402252,20.0482188 20.0711519,16.0890372 19.1451296,9.21320559 C19.1451296,9.17968335 19.1449897,9.14622859 19.1447104,9.11284172 L16.6829107,9.11284172 C16.7029543,9.3998994 16.7099434,9.69532154 16.7032793,9.99881244 C16.7091464,14.9097205 13.9116555,17.2131455 9.97144541,17.2131455 C6.03123534,17.2131455 2.83706397,13.9831786 2.83706397,9.99881244 C2.83706397,6.01444633 6.03123534,2.78447941 9.97144541,2.78447941 C11.9426693,2.78447941 13.6510984,3.4662525 14.8539648,4.7098872 L16.7824697,2.75977044 Z" id="Oval-1"></path>
                            </g>
                        </g>
                        <g id="logo_play" transform="translate(13.615195, 11.599674)">
                            <mask id="mask-4" fill="white">
                                <use xlink:href="#path-3"></use>
                            </mask>
                            <use id="yellow" fill="url(#linearGradient-2)" transform="translate(17.238398, 18.176080) rotate(-270.000000) translate(-17.238398, -18.176080) " xlink:href="#path-3"></use>
                            <polygon id="blue" fill="url(#linearGradient-5)" mask="url(#mask-4)" points="1 -1.01340059 19.7432298 17.8669764 0.757903235 37.4935984"></polygon>
                            <polygon id="green" fill="url(#linearGradient-6)" mask="url(#mask-4)" points="-2.85430464 -4.90019831 19.7410054 17.8724989 26.4588544 11.3773245"></polygon>
                            <polygon id="red" fill="url(#linearGradient-7)" mask="url(#mask-4)" points="19.7440833 17.8681542 30.0284367 28.3741472 -0.695091193 38.8801402"></polygon>
                        </g>
                    </g>
                </g>
            </g>
        </g>
    </g>
</svg>